<svg width="17" height="17" viewBox="0 0 17 17" fill="none" xmlns="http://www.w3.org/2000/svg">
<g clip-path="url(#clip0_545_1473)">
<path d="M9.85508 10.0938C9.85508 9.16406 9.08477 8.39375 8.15508 8.39375H6.9332C6.64102 8.39375 6.42852 8.18125 6.42852 7.88906C6.42852 7.59688 6.66758 7.38437 6.9332 7.38437H8.07539H8.10195H8.12852H9.13789C9.45664 7.38437 9.72227 7.11875 9.72227 6.8C9.72227 6.48125 9.45664 6.21562 9.13789 6.21562H8.71289V5.89688C8.71289 5.57813 8.44727 5.3125 8.12852 5.3125C7.80977 5.3125 7.54414 5.57813 7.54414 5.89688V6.21562H6.95977C6.00352 6.21562 5.25977 6.98594 5.25977 7.91562C5.25977 8.84531 6.03008 9.61563 6.95977 9.61563H8.18164C8.47383 9.61563 8.68633 9.82812 8.68633 10.1203C8.68633 10.4125 8.44727 10.625 8.18164 10.625H5.8707C5.55195 10.625 5.28633 10.8906 5.28633 11.2094C5.28633 11.5281 5.55195 11.7938 5.8707 11.7938H7.54414V12.1922C7.54414 12.5109 7.80977 12.7766 8.12852 12.7766C8.44727 12.7766 8.71289 12.5109 8.71289 12.1922V11.6875C9.37695 11.4484 9.85508 10.8375 9.85508 10.0938Z" fill="white"/>
<path d="M16.5223 7.96836C16.5223 4.1168 13.3613 0.982422 9.45664 0.982422C7.83633 0.982422 6.64102 1.48711 5.89727 1.91211C5.6582 2.04492 5.07383 2.39023 4.72852 2.76211C2.23164 3.85117 0.478516 6.26836 0.478516 9.08398C0.478516 12.909 3.69258 16.0168 7.67695 16.0168C9.43008 16.0168 11.0504 15.4059 12.2988 14.3965C14.8754 13.2809 16.5223 10.784 16.5223 7.96836ZM15.3535 7.96836C15.3535 8.95117 15.1145 9.88086 14.6629 10.7043C14.7957 10.1996 14.8488 9.6418 14.8488 9.08398C14.8488 5.57773 12.1395 2.68242 8.60664 2.23086C8.87227 2.2043 9.16445 2.17773 9.45664 2.17773C12.6973 2.17773 15.3535 4.78086 15.3535 7.96836ZM1.64727 9.08398C1.64727 5.92305 4.33008 3.34648 7.65039 3.34648C10.9441 3.34648 13.6535 5.92305 13.6535 9.08398C13.6535 10.784 12.8566 12.3246 11.6082 13.3871C11.5816 13.4137 11.5551 13.4137 11.5285 13.4402C10.4926 14.2902 9.11133 14.8215 7.65039 14.8215C4.35664 14.8215 1.64727 12.2449 1.64727 9.08398Z" fill="white"/>
</g>
<defs>
<clipPath id="clip0_545_1473">
<rect width="17" height="17" fill="white"/>
</clipPath>
</defs>
</svg>
