<svg width="74" height="45" viewBox="0 0 74 45" fill="none" xmlns="http://www.w3.org/2000/svg">
<rect width="74" height="45" rx="6" fill="#4064AC"/>
<path d="M39.9691 21.0625H38.89H38.5046V20.4375V18.5V17.875H38.89H39.6993C39.9113 17.875 40.0848 17.625 40.0848 17.25V13.9375C40.0848 13.5938 39.9306 13.3125 39.6993 13.3125H38.2926C36.7702 13.3125 35.7103 15.0625 35.7103 17.6562V20.375V21H35.3249H34.0145C33.7447 21 33.4941 21.3438 33.4941 21.8438V24.0938C33.4941 24.5312 33.7061 24.9375 34.0145 24.9375H35.2863H35.6717V25.5625V31.8438C35.6717 32.2812 35.8837 32.6875 36.1921 32.6875H38.0035C38.1191 32.6875 38.2155 32.5938 38.2926 32.4688C38.3697 32.3438 38.4275 32.125 38.4275 31.9375V25.5938V24.9688H38.8322H39.6993C39.9499 24.9688 40.1426 24.7188 40.1811 24.3438V24.3125V24.2812L40.4509 22.125C40.4702 21.9062 40.4509 21.6562 40.3353 21.4062C40.2967 21.25 40.1233 21.0938 39.9691 21.0625Z" fill="white"/>
</svg>
