<svg width="37" height="46" viewBox="0 0 37 46" fill="none" xmlns="http://www.w3.org/2000/svg">
<g clip-path="url(#clip0_312_661)">
<mask id="mask0_312_661" style="mask-type:luminance" maskUnits="userSpaceOnUse" x="0" y="0" width="37" height="46">
<path d="M36.5 0.900391H0.5V45.9004H36.5V0.900391Z" fill="white"/>
</mask>
<g mask="url(#mask0_312_661)">
<path d="M0.5 32.2903V3.15039C0.5 1.90775 1.50736 0.900391 2.75 0.900391H34.25C35.4926 0.900391 36.5 1.90775 36.5 3.15039V33.3905C36.5 34.1732 36.0932 34.8998 35.4258 35.3088L20.2606 44.6036C19.5275 45.0529 18.6024 45.0451 17.8769 44.5834L1.54203 34.1885C0.893022 33.7755 0.5 33.0595 0.5 32.2903Z" fill="#1C1C1C"/>
<path d="M19.5 8.90039V11.4004L22.5 13.4004L23 12.4004L19.5 8.90039Z" fill="#ECA7BF"/>
<path d="M18.5 8.90039V10.9004L20.9502 13.3506L21.5 11.9004L18.5 8.90039Z" fill="#FFCCDE"/>
<path d="M28.5 18.9004H25.5L27 14.4004L28.5 18.9004Z" fill="#ECA7BF"/>
<path d="M22.5 9.90039L15.5 22.4004L24 27.9004L27 14.4004L22.5 9.90039Z" fill="#FFCCDE"/>
<path d="M11.5 27.9004L8.5 21.9004H21L24 27.9004H11.5Z" fill="#ECA7BF"/>
<path d="M23.5 16.9004C24.0523 16.9004 24.5 16.4527 24.5 15.9004C24.5 15.3481 24.0523 14.9004 23.5 14.9004C22.9477 14.9004 22.5 15.3481 22.5 15.9004C22.5 16.4527 22.9477 16.9004 23.5 16.9004Z" fill="#1C1C1C"/>
</g>
</g>
<defs>
<clipPath id="clip0_312_661">
<rect width="36" height="45" fill="white" transform="translate(0.5 0.900391)"/>
</clipPath>
</defs>
</svg>
