<svg width="37" height="46" viewBox="0 0 37 46" fill="none" xmlns="http://www.w3.org/2000/svg">
<g clip-path="url(#clip0_312_692)">
<mask id="mask0_312_692" style="mask-type:luminance" maskUnits="userSpaceOnUse" x="0" y="0" width="37" height="46">
<path d="M36.5 0.900391H0.5V45.9004H36.5V0.900391Z" fill="white"/>
</mask>
<g mask="url(#mask0_312_692)">
<path d="M0.5 32.2903V3.15039C0.5 1.90775 1.50736 0.900391 2.75 0.900391H34.25C35.4926 0.900391 36.5 1.90775 36.5 3.15039V33.3905C36.5 34.1732 36.0932 34.8998 35.4258 35.3088L20.2606 44.6036C19.5275 45.0529 18.6024 45.0451 17.8769 44.5834L1.54203 34.1885C0.893022 33.7755 0.5 33.0595 0.5 32.2903Z" fill="#1C1C1C"/>
<mask id="mask1_312_692" style="mask-type:luminance" maskUnits="userSpaceOnUse" x="0" y="0" width="23" height="23">
<path d="M22.5 0.900391H0.5V22.9004H22.5V0.900391Z" fill="white"/>
</mask>
<g mask="url(#mask1_312_692)">
<path fill-rule="evenodd" clip-rule="evenodd" d="M18.5 30.9004C24.5751 30.9004 29.5 25.9755 29.5 19.9004C29.5 13.8253 24.5751 8.90039 18.5 8.90039C12.4249 8.90039 7.5 13.8253 7.5 19.9004C7.5 25.9755 12.4249 30.9004 18.5 30.9004ZM19.657 23.4613C20.0426 24.7325 19.4513 25.58 18.5001 25.58C17.5489 25.58 16.9576 24.7325 17.3432 23.4613L18.3201 20.1774L16.032 22.6668C15.158 23.6467 14.1296 23.5673 13.6668 22.7198C13.1784 21.8458 13.6154 20.9189 14.8751 20.6276L18.1145 19.8331L14.8751 19.0386C13.6154 18.7472 13.1784 17.8203 13.6668 16.9463C14.1296 16.0989 15.158 16.0194 16.032 16.9993L18.3201 19.5153L17.3432 16.2048C16.9576 14.9336 17.5489 14.0861 18.5001 14.0861C19.4513 14.0861 20.0426 14.9336 19.657 16.2048L18.6801 19.5153L20.9682 16.9993C21.8423 16.0194 22.8706 16.0989 23.3334 16.9463C23.8219 17.8203 23.3848 18.7472 22.125 19.0386L18.86 19.8331L22.125 20.6276C23.3848 20.9189 23.8219 21.8458 23.3334 22.7198C22.8706 23.5673 21.8423 23.6467 20.9682 22.6668L18.6801 20.1774L19.657 23.4613Z" fill="#FFCCDE"/>
</g>
</g>
</g>
<defs>
<clipPath id="clip0_312_692">
<rect width="36" height="45" fill="white" transform="translate(0.5 0.900391)"/>
</clipPath>
</defs>
</svg>
