<svg width="37" height="46" viewBox="0 0 37 46" fill="none" xmlns="http://www.w3.org/2000/svg">
<g clip-path="url(#clip0_312_677)">
<mask id="mask0_312_677" style="mask-type:luminance" maskUnits="userSpaceOnUse" x="0" y="0" width="37" height="46">
<path d="M36.5 0.900391H0.5V45.9004H36.5V0.900391Z" fill="white"/>
</mask>
<g mask="url(#mask0_312_677)">
<path d="M0.5 32.2903V3.15039C0.5 1.90775 1.50736 0.900391 2.75 0.900391H34.25C35.4926 0.900391 36.5 1.90775 36.5 3.15039V33.3905C36.5 34.1732 36.0932 34.8998 35.4258 35.3088L20.2606 44.6036C19.5275 45.0529 18.6024 45.0451 17.8769 44.5834L1.54203 34.1885C0.893022 33.7755 0.5 33.0595 0.5 32.2903Z" fill="#1C1C1C"/>
<mask id="mask1_312_677" style="mask-type:luminance" maskUnits="userSpaceOnUse" x="0" y="0" width="26" height="17">
<path d="M25.1667 0.900391H0.5V16.9004H25.1667V0.900391Z" fill="white"/>
</mask>
<g mask="url(#mask1_312_677)">
<path fill-rule="evenodd" clip-rule="evenodd" d="M6.66602 18.0539C6.66602 17.5519 6.87391 17.0724 7.24028 16.7292L12.0821 12.1937C13.1292 11.2128 14.7578 11.2128 15.8049 12.1937L20.6467 16.7292C21.0131 17.0724 21.221 17.5519 21.221 18.0539V23.9623C21.221 25.466 20.0019 26.6851 18.4982 26.6851H9.38882C7.88506 26.6851 6.66602 25.466 6.66602 23.9623V18.0539ZM11.204 24.8699C11.7053 24.8699 12.1116 24.4635 12.1116 23.9623C12.1116 23.461 11.7053 23.0547 11.204 23.0547H9.38882C8.88757 23.0547 8.48122 23.461 8.48122 23.9623C8.48122 24.4635 8.88757 24.8699 9.38882 24.8699H11.204ZM23.0362 23.9623V18.2105H31.236V23.9623C31.236 25.466 30.0169 26.6851 28.5132 26.6851H22.1289C22.6986 25.9266 23.0362 24.9839 23.0362 23.9623ZM30.3053 16.3953H22.9455L20.2786 13.8971L22.0971 12.1937C23.1442 11.2128 24.7728 11.2128 25.8199 12.1937L30.3053 16.3953Z" fill="#FFCCDE"/>
</g>
</g>
</g>
<defs>
<clipPath id="clip0_312_677">
<rect width="36" height="45" fill="white" transform="translate(0.5 0.900391)"/>
</clipPath>
</defs>
</svg>
