<svg width="12" height="12" viewBox="0 0 12 12" fill="none" xmlns="http://www.w3.org/2000/svg">
<path d="M5.35 9.35H5C4.64102 9.35 4.35 9.64101 4.35 10C4.35 10.359 4.64102 10.65 5 10.65H5.35V11C5.35 11.359 5.64101 11.65 6 11.65C6.35899 11.65 6.65 11.359 6.65 11V10.65H7C7.35899 10.65 7.65 10.359 7.65 10C7.65 9.64101 7.35899 9.35 7 9.35H6.65V8.59935C8.63326 8.28733 10.15 6.57091 10.15 4.5C10.15 2.20802 8.29199 0.35 6 0.35C3.70802 0.35 1.85 2.20802 1.85 4.5C1.85 6.57091 3.36672 8.28733 5.35 8.59935V9.35ZM6 7.34815C4.427 7.34815 3.15182 6.07301 3.15182 4.5C3.15182 2.927 4.427 1.65182 6 1.65182C7.57301 1.65182 8.84815 2.927 8.84815 4.5C8.84815 6.07301 7.57301 7.34815 6 7.34815Z" fill="#0F0F0F" stroke="black" stroke-width="0.3"/>
</svg>
