<svg width="79" height="45" viewBox="0 0 79 45" fill="none" xmlns="http://www.w3.org/2000/svg">
<rect width="79" height="45" rx="6" fill="#D64937"/>
<g clip-path="url(#clip0_421_8320)">
<path d="M49.2188 22.1252H40.25V24.7814H46.6875C46.3438 28.4689 43.3438 30.0627 40.4375 30.0627C36.75 30.0627 33.4688 27.1877 33.4688 23.0314C33.4688 19.0314 36.5938 16.0002 40.4375 16.0002C43.375 16.0002 45.1563 17.9064 45.1563 17.9064L46.9688 16.0002C46.9688 16.0002 44.5313 13.3439 40.3125 13.3439C34.75 13.3127 30.5 17.9689 30.5 23.0002C30.5 27.8752 34.5 32.6877 40.4063 32.6877C45.625 32.6877 49.375 29.1564 49.375 23.8752C49.4063 22.7814 49.2188 22.1252 49.2188 22.1252Z" fill="white"/>
</g>
<defs>
<clipPath id="clip0_421_8320">
<rect width="20" height="20" fill="white" transform="translate(30 13)"/>
</clipPath>
</defs>
</svg>
