<svg width="30" height="32" viewBox="0 0 30 32" fill="none" xmlns="http://www.w3.org/2000/svg">
<path d="M29.9111 9.84177C29.8941 8.57877 29.6581 7.32977 29.2131 6.14777C28.8261 5.15177 28.2371 4.24677 27.4811 3.49077C26.7261 2.73577 25.8211 2.14577 24.8241 1.75977C23.6581 1.32177 22.4261 1.08477 21.1811 1.05977C19.5771 0.987773 19.0691 0.967773 14.9991 0.967773C10.9291 0.967773 10.4081 0.967773 8.81614 1.05977C7.57114 1.08577 6.34014 1.32177 5.17414 1.75977C4.17814 2.14577 3.27214 2.73477 2.51714 3.49077C1.76114 4.24677 1.17214 5.15177 0.786141 6.14777C0.347141 7.31277 0.111141 8.54477 0.0871406 9.78977C0.0161406 11.3948 -0.00585938 11.9028 -0.00585938 15.9728C-0.00585938 20.0428 -0.00585944 20.5628 0.0871406 22.1568C0.112141 23.4028 0.347141 24.6328 0.786141 25.8018C1.17214 26.7978 1.76214 27.7028 2.51814 28.4578C3.27414 29.2128 4.17914 29.8028 5.17614 30.1878C6.33814 30.6438 7.57014 30.8968 8.81814 30.9378C10.4231 31.0098 10.9311 31.0318 15.0011 31.0318C19.0711 31.0318 19.5921 31.0318 21.1841 30.9378C22.4291 30.9138 23.6611 30.6778 24.8271 30.2398C25.8241 29.8528 26.7281 29.2638 27.4841 28.5078C28.2391 27.7518 28.8291 26.8478 29.2161 25.8518C29.6541 24.6848 29.8891 23.4548 29.9141 22.2068C29.9861 20.6028 30.0071 20.0948 30.0071 16.0228C30.0041 11.9528 30.0041 11.4368 29.9111 9.84177ZM14.9891 23.6698C10.7321 23.6698 7.28414 20.2218 7.28414 15.9648C7.28414 11.7078 10.7321 8.25977 14.9891 8.25977C17.0331 8.25977 18.9921 9.07177 20.4371 10.5168C21.8821 11.9618 22.6941 13.9208 22.6941 15.9648C22.6941 18.0078 21.8821 19.9678 20.4371 21.4128C18.9921 22.8578 17.0331 23.6698 14.9891 23.6698ZM23.0011 9.77177C22.7651 9.77177 22.5311 9.72577 22.3131 9.63477C22.0951 9.54477 21.8971 9.41277 21.7301 9.24577C21.5631 9.07877 21.4311 8.88077 21.3401 8.66277C21.2501 8.44477 21.2041 8.21077 21.2041 7.97477C21.2041 7.73877 21.2511 7.50577 21.3411 7.28777C21.4311 7.06977 21.5631 6.87177 21.7301 6.70477C21.8971 6.53777 22.0951 6.40577 22.3131 6.31577C22.5311 6.22577 22.7641 6.17877 23.0001 6.17877C23.2361 6.17877 23.4691 6.22577 23.6871 6.31577C23.9051 6.40577 24.1031 6.53777 24.2701 6.70477C24.4371 6.87177 24.5691 7.06977 24.6591 7.28777C24.7491 7.50577 24.7961 7.73877 24.7961 7.97477C24.7961 8.96777 23.9931 9.77177 23.0011 9.77177Z" fill="#1C1C1C"/>
</svg>
