<svg width="14" height="14" viewBox="0 0 14 14" fill="none" xmlns="http://www.w3.org/2000/svg">
<path d="M6.84687 7.875C6.58437 7.875 6.34375 8.09375 6.34375 8.37812V10.6531C6.34375 10.9156 6.5625 11.1563 6.84687 11.1563C7.13125 11.1563 7.35 10.9375 7.35 10.6531V8.37812C7.35 8.09375 7.13125 7.875 6.84687 7.875Z" fill="white"/>
<path d="M10.718 3.78457H10.1273V2.34082C10.1273 1.24707 9.25234 0.37207 8.15859 0.37207H5.83984C4.74609 0.37207 3.87109 1.24707 3.87109 2.34082V3.78457H3.28047C2.53672 3.78457 1.90234 4.39707 1.90234 5.1627V12.2502C1.90234 12.9939 2.51484 13.6283 3.28047 13.6283H10.718C11.4617 13.6283 12.0961 13.0158 12.0961 12.2502V5.1627C12.0961 4.39707 11.4836 3.78457 10.718 3.78457ZM4.85547 2.34082C4.85547 1.79395 5.29297 1.35645 5.83984 1.35645H8.18047C8.72734 1.35645 9.16484 1.79395 9.16484 2.34082V3.78457H4.85547V2.34082ZM11.1117 12.2502C11.1117 12.4689 10.9367 12.6439 10.718 12.6439H3.28047C3.06172 12.6439 2.88672 12.4689 2.88672 12.2502V5.1627C2.88672 4.94395 3.06172 4.76894 3.28047 4.76894H10.718C10.9367 4.76894 11.1117 4.94395 11.1117 5.1627V12.2502Z" fill="white"/>
</svg>
