<svg width="10" height="10" viewBox="0 0 10 10" fill="none" xmlns="http://www.w3.org/2000/svg">
<g clip-path="url(#clip0_566_2945)">
<path d="M9.74666 0.258093C9.57424 0.0851768 9.33729 -0.00735791 9.0929 0.00384L6.12777 0.137463C5.64886 0.159048 5.27809 0.564806 5.29967 1.04371C5.32126 1.52265 5.7276 1.89273 6.20592 1.87181L6.928 1.83926L5.98466 2.7826C5.36764 2.39287 4.6521 2.18419 3.90442 2.18419C2.86099 2.18419 1.88003 2.5905 1.1423 3.32832C-0.380765 4.85132 -0.380765 7.3295 1.1423 8.85254C1.88003 9.59036 2.86099 9.99663 3.90442 9.99663C4.94785 9.99663 5.92875 9.59036 6.66654 8.85254C7.9787 7.54038 8.16026 5.51941 7.21151 4.01093L8.15772 3.06472L8.12314 3.78642C8.10019 4.2653 8.46976 4.67207 8.94863 4.69504C8.96281 4.69571 8.97684 4.69606 8.99091 4.69606C9.45115 4.69606 9.83495 4.33422 9.85725 3.86955L9.99898 0.912578C10.0108 0.668626 9.91915 0.431039 9.74666 0.258093ZM5.439 7.62496C5.0291 8.03483 4.48414 8.26055 3.90448 8.26055C3.32476 8.26055 2.7798 8.03483 2.36996 7.62496C1.52384 6.77881 1.52384 5.40208 2.36996 4.55592C2.7798 4.14606 3.32482 3.92033 3.90448 3.92033C4.48414 3.92033 5.02916 4.14606 5.439 4.55592C6.28512 5.40202 6.28512 6.77878 5.439 7.62496Z" fill="#1C1C1C"/>
</g>
<defs>
<clipPath id="clip0_566_2945">
<rect width="10" height="10" fill="white"/>
</clipPath>
</defs>
</svg>
