<svg width="63" height="63" viewBox="0 0 63 63" fill="none" xmlns="http://www.w3.org/2000/svg">
<rect x="7.97461" width="55.002" height="55.002" rx="27.501" transform="rotate(8.33647 7.97461 0)" fill="#007656"/>
<g clip-path="url(#clip0_312_174)">
<path d="M28.9275 30.4443C28.5941 29.9514 28.2906 29.4336 27.9195 28.9716C25.8499 26.3757 23.7428 23.8109 21.7105 21.1874C21.353 20.7268 21.221 19.8513 22.1285 19.2342C22.8524 18.742 23.4626 18.7509 23.5154 18.7562C24.1137 18.8166 24.7184 19.5422 25.1764 20.093C27.0382 22.3408 28.8365 24.6379 30.6758 26.9044C31.0104 27.3209 31.4164 27.6784 31.7885 28.064C31.9502 27.962 32.1123 27.8566 32.2706 27.7543C32.0622 27.2808 31.936 26.7426 31.6265 26.3495C30.0117 24.2693 28.3331 22.2418 26.718 20.165C26.2514 19.5646 25.7532 18.5182 26.9278 17.7911C27.6552 17.3642 28.403 17.3178 29.0795 17.8317C29.0622 17.803 29.6562 18.3827 29.6789 18.4106C32.5629 21.9621 35.4465 25.517 38.5978 29.4051C37.36 30.3103 36.1736 31.0849 35.0974 31.9888C32.7989 33.9145 32.1951 36.9505 33.4738 39.6545C33.7358 40.2064 33.951 40.7814 34.1879 41.3446C34.467 41.1709 34.7464 40.9938 35.0254 40.8202C34.9053 40.3557 34.8538 39.8599 34.6543 39.4326C33.3783 36.6697 33.7263 34.2446 36.2048 32.5704C38.5909 30.9599 39.6985 28.9594 39.5757 26.1388C39.5532 25.6285 39.649 25.1023 39.7431 24.5933C39.9807 23.3298 40.7772 22.6724 42.0277 22.7359C43.3703 22.8053 44.2462 23.6661 44.1321 24.963C43.6975 29.843 43.3591 34.757 42.5021 39.5701C41.9026 42.9302 39.4681 45.1064 36.0923 45.7959C32.8393 46.4595 30.0155 45.5378 27.8342 42.9272C24.4292 38.836 21.0313 34.7421 17.6222 30.6575C16.8495 29.7304 16.0785 28.7201 17.3054 27.6886C18.5551 26.635 19.4738 27.4794 20.2906 28.5117C21.7233 30.3265 23.1937 32.1103 24.649 33.9065C24.8563 33.7952 25.0671 33.6843 25.2744 33.5729C25.0549 33.0741 24.9289 32.5011 24.6011 32.0853C22.5831 29.5225 20.5162 26.9999 18.4757 24.4557C18.0529 23.9293 17.4438 22.8231 18.3447 22.0056C19.5927 20.9185 20.3811 21.6329 21.3667 22.5794C23.379 24.999 25.3015 27.4897 27.2988 29.9216C27.6189 30.3123 28.1199 30.5473 28.5381 30.8539C28.6694 30.7141 28.7973 30.5739 28.9282 30.4375L28.9275 30.4443Z" fill="white"/>
</g>
<defs>
<clipPath id="clip0_312_174">
<rect width="29.0071" height="29.9971" fill="white" transform="translate(17.4648 14.54) rotate(8.33647)"/>
</clipPath>
</defs>
</svg>
