<svg width="14" height="17" viewBox="0 0 14 17" fill="none" xmlns="http://www.w3.org/2000/svg">
<path d="M6.98461 7.36211C4.73622 7.36211 2.9375 5.70423 2.9375 3.68106C2.9375 1.65788 4.73622 0 6.98461 0C9.233 0 11.0317 1.65788 11.0317 3.68106C11.0317 5.70423 9.233 7.36211 6.98461 7.36211ZM6.98461 1.26448C5.48568 1.26448 4.28654 2.36037 4.28654 3.68106C4.28654 5.00174 5.48568 6.09763 6.98461 6.09763C8.48354 6.09763 9.68268 5.00174 9.68268 3.68106C9.68268 2.36037 8.48354 1.26448 6.98461 1.26448Z" fill="white"/>
<path d="M12.8908 16.9993H1.07923C0.479657 16.9993 0 16.5497 0 15.9877V13.4588C0 10.705 2.39829 8.45703 5.33619 8.45703H8.66381C11.6017 8.45703 14 10.705 14 13.4588V15.9877C13.97 16.5216 13.4904 16.9993 12.8908 16.9993ZM1.34904 15.7348H12.651V13.4588C12.651 11.4075 10.8522 9.72152 8.66381 9.72152H5.30621C3.11777 9.72152 1.31906 11.4075 1.31906 13.4588V15.7348H1.34904Z" fill="white"/>
</svg>
