<svg width="215" height="41" viewBox="0 0 215 41" fill="none" xmlns="http://www.w3.org/2000/svg">
<g clip-path="url(#clip0_421_9771)">
<path d="M40 0H0V40H40V0Z" fill="#219653"/>
<path d="M20 26.9583L26.0833 25.4167L28.625 33.25L20 26.9583ZM34 16.8333H23.2917L20 6.75L16.7083 16.8333H6L14.6667 23.0833L11.375 33.1667L20.0417 26.9167L25.375 23.0833L34 16.8333Z" fill="white"/>
<path d="M83.75 0H43.75V40H83.75V0Z" fill="#219653"/>
<path d="M63.75 26.9583L69.8333 25.4167L72.375 33.25L63.75 26.9583ZM77.75 16.8333H67.0417L63.75 6.75L60.4583 16.8333H49.75L58.4167 23.0833L55.125 33.1667L63.7917 26.9167L69.125 23.0833L77.75 16.8333Z" fill="white"/>
<path d="M127.5 0H87.5V40H127.5V0Z" fill="#219653"/>
<path d="M107.5 26.9583L113.583 25.4167L116.125 33.25L107.5 26.9583ZM121.5 16.8333H110.792L107.5 6.75L104.208 16.8333H93.5L102.167 23.0833L98.875 33.1667L107.542 26.9167L112.875 23.0833L121.5 16.8333Z" fill="white"/>
<path d="M171.25 0H131.25V40H171.25V0Z" fill="#219653"/>
<path d="M151.25 26.9583L157.333 25.4167L159.875 33.25L151.25 26.9583ZM165.25 16.8333H154.542L151.25 6.75L147.958 16.8333H137.25L145.917 23.0833L142.625 33.1667L151.292 26.9167L156.625 23.0833L165.25 16.8333Z" fill="white"/>
<path d="M215 0H175V40H215V0Z" fill="#219653"/>
<path d="M195 26.9583L201.083 25.4167L203.625 33.25L195 26.9583ZM209 16.8333H198.292L195 6.75L191.708 16.8333H181L189.667 23.0833L186.375 33.1667L195.042 26.9167L200.375 23.0833L209 16.8333Z" fill="white"/>
</g>
<defs>
<clipPath id="clip0_421_9771">
<rect width="215" height="41" fill="white"/>
</clipPath>
</defs>
</svg>
