<svg width="104" height="97" viewBox="0 0 104 97" fill="none" xmlns="http://www.w3.org/2000/svg">
<g clip-path="url(#clip0_312_381)">
<path d="M0.271484 22.5322L46.359 10.1831C66.6862 4.73647 87.5794 16.7973 93.0254 37.1217C98.4713 57.4461 86.4077 78.3378 66.0804 83.7845L19.9929 96.1336L0.271484 22.5322Z" fill="#007656"/>
<path d="M76.3066 49.4917C74.5962 43.2174 67.5202 40.7929 62.1648 43.657C61.4954 38.6437 64.1808 34.6818 68.5435 31.2456L66.7619 24.7098C52.2915 34.5525 53.4698 47.5721 54.8238 52.5393C57.3181 61.6894 63.0961 64.4676 68.8079 62.9106C74.5196 61.3535 78.0882 56.0275 76.3066 49.4917Z" fill="#FFCCDE"/>
<path d="M51.6816 56.2036C49.9712 49.9292 42.8952 47.5048 37.5397 50.369C36.8704 45.3556 39.5558 41.3937 43.9185 37.9575L42.1369 31.4217C27.6665 41.2644 28.8448 54.2839 30.1988 59.2511C32.6931 68.4012 38.4711 71.1795 44.1828 69.6224C49.8946 68.0655 53.4632 62.7394 51.6816 56.2036Z" fill="#FFCCDE"/>
</g>
<defs>
<clipPath id="clip0_312_381">
<rect width="87.005" height="76.9942" fill="white" transform="translate(0 22.5186) rotate(-15)"/>
</clipPath>
</defs>
</svg>
