<svg width="63" height="26" viewBox="0 0 63 26" fill="none" xmlns="http://www.w3.org/2000/svg">
<path d="M7.49974 16.6761L10.7136 15.8616L12.0563 20L7.49974 16.6761ZM14.896 11.327H9.23873L7.49974 6L5.76075 11.327H0.103516L4.68213 14.6289L2.94314 19.956L7.52175 16.6541L10.3394 14.6289L14.896 11.327Z" fill="#219653"/>
<path d="M22.71 8.89062V16H21.25V8.89062H22.71ZM24.8975 8.89062V10.0381H19.0967V8.89062H24.8975ZM26.709 11.8691V16H25.3027V10.7168H26.626L26.709 11.8691ZM28.3008 10.6826L28.2764 11.9863C28.208 11.9766 28.125 11.9684 28.0273 11.9619C27.9329 11.9521 27.8467 11.9473 27.7686 11.9473C27.57 11.9473 27.3975 11.9733 27.251 12.0254C27.1077 12.0742 26.9873 12.1475 26.8896 12.2451C26.7952 12.3428 26.7236 12.4616 26.6748 12.6016C26.6292 12.7415 26.6032 12.901 26.5967 13.0801L26.3135 12.9922C26.3135 12.6504 26.3477 12.3363 26.416 12.0498C26.4844 11.7601 26.5837 11.5078 26.7139 11.293C26.8473 11.0781 27.0101 10.9121 27.2021 10.7949C27.3942 10.6777 27.6139 10.6191 27.8613 10.6191C27.9395 10.6191 28.0192 10.6257 28.1006 10.6387C28.182 10.6484 28.2487 10.6631 28.3008 10.6826ZM32.0898 14.7354V10.7168H33.4961V16H32.1729L32.0898 14.7354ZM32.2461 13.6514L32.6611 13.6416C32.6611 13.9932 32.6204 14.3203 32.5391 14.623C32.4577 14.9225 32.3356 15.1829 32.1729 15.4043C32.0101 15.6224 31.805 15.7933 31.5576 15.917C31.3102 16.0374 31.0189 16.0977 30.6836 16.0977C30.4264 16.0977 30.1888 16.0618 29.9707 15.9902C29.7559 15.9154 29.5703 15.7998 29.4141 15.6436C29.2611 15.484 29.1406 15.2806 29.0527 15.0332C28.9681 14.7826 28.9258 14.4814 28.9258 14.1299V10.7168H30.332V14.1396C30.332 14.2959 30.3499 14.4277 30.3857 14.5352C30.4248 14.6426 30.4785 14.7305 30.5469 14.7988C30.6152 14.8672 30.695 14.916 30.7861 14.9453C30.8805 14.9746 30.9847 14.9893 31.0986 14.9893C31.3883 14.9893 31.6162 14.9307 31.7822 14.8135C31.9515 14.6963 32.0703 14.5368 32.1387 14.335C32.2103 14.1299 32.2461 13.902 32.2461 13.6514ZM37.4268 14.54C37.4268 14.4391 37.3975 14.348 37.3389 14.2666C37.2803 14.1852 37.1712 14.1104 37.0117 14.042C36.8555 13.9704 36.6292 13.9053 36.333 13.8467C36.0661 13.7881 35.8171 13.7148 35.5859 13.627C35.3581 13.5358 35.1595 13.4268 34.9902 13.2998C34.8242 13.1729 34.694 13.0231 34.5996 12.8506C34.5052 12.6748 34.458 12.4746 34.458 12.25C34.458 12.0286 34.5052 11.8203 34.5996 11.625C34.6973 11.4297 34.8356 11.2572 35.0146 11.1074C35.1969 10.9544 35.4183 10.8356 35.6787 10.751C35.9424 10.6631 36.2386 10.6191 36.5674 10.6191C37.0264 10.6191 37.4202 10.6924 37.749 10.8389C38.0811 10.9854 38.335 11.1872 38.5107 11.4443C38.6898 11.6982 38.7793 11.988 38.7793 12.3135H37.373C37.373 12.1768 37.3438 12.0547 37.2852 11.9473C37.2298 11.8366 37.1419 11.7503 37.0215 11.6885C36.9043 11.6234 36.7513 11.5908 36.5625 11.5908C36.4062 11.5908 36.2712 11.6185 36.1572 11.6738C36.0433 11.7259 35.9554 11.7975 35.8936 11.8887C35.835 11.9766 35.8057 12.0742 35.8057 12.1816C35.8057 12.263 35.8219 12.3363 35.8545 12.4014C35.8903 12.4632 35.9473 12.5202 36.0254 12.5723C36.1035 12.6243 36.2044 12.6732 36.3281 12.7188C36.4551 12.7611 36.6113 12.8001 36.7969 12.8359C37.1777 12.9141 37.5179 13.0166 37.8174 13.1436C38.1169 13.2673 38.3545 13.4365 38.5303 13.6514C38.7061 13.863 38.7939 14.1413 38.7939 14.4863C38.7939 14.7207 38.7419 14.9355 38.6377 15.1309C38.5335 15.3262 38.3838 15.4971 38.1885 15.6436C37.9932 15.7868 37.7588 15.8991 37.4854 15.9805C37.2152 16.0586 36.9108 16.0977 36.5723 16.0977C36.0807 16.0977 35.6641 16.0098 35.3223 15.834C34.9837 15.6582 34.7266 15.4352 34.5508 15.165C34.3783 14.8916 34.292 14.6117 34.292 14.3252H35.625C35.6315 14.5173 35.6803 14.6719 35.7715 14.7891C35.8659 14.9062 35.9847 14.9909 36.1279 15.043C36.2744 15.0951 36.4323 15.1211 36.6016 15.1211C36.7839 15.1211 36.9352 15.0967 37.0557 15.0479C37.1761 14.9958 37.2673 14.9274 37.3291 14.8428C37.3942 14.7549 37.4268 14.654 37.4268 14.54ZM42.2949 10.7168V11.7129H39.2188V10.7168H42.2949ZM39.9805 9.41309H41.3867V14.4082C41.3867 14.5612 41.4062 14.6784 41.4453 14.7598C41.4876 14.8411 41.5495 14.8981 41.6309 14.9307C41.7122 14.96 41.8148 14.9746 41.9385 14.9746C42.0264 14.9746 42.1045 14.9714 42.1729 14.9648C42.2445 14.9551 42.3047 14.9453 42.3535 14.9355L42.3584 15.9707C42.238 16.0098 42.1077 16.0407 41.9678 16.0635C41.8278 16.0863 41.6732 16.0977 41.5039 16.0977C41.1947 16.0977 40.9245 16.0472 40.6934 15.9463C40.4655 15.8421 40.2897 15.6761 40.166 15.4482C40.0423 15.2204 39.9805 14.9209 39.9805 14.5498V9.41309ZM44.502 11.7324V18.0312H43.0957V10.7168H44.3994L44.502 11.7324ZM47.8467 13.2998V13.4023C47.8467 13.7865 47.8011 14.1429 47.71 14.4717C47.6221 14.8005 47.4919 15.0869 47.3193 15.3311C47.1468 15.5719 46.932 15.7607 46.6748 15.8975C46.4209 16.0309 46.1279 16.0977 45.7959 16.0977C45.4736 16.0977 45.1937 16.0326 44.9561 15.9023C44.7184 15.7721 44.5182 15.5898 44.3555 15.3555C44.196 15.1178 44.0674 14.8428 43.9697 14.5303C43.8721 14.2178 43.7972 13.8825 43.7451 13.5244V13.2559C43.7972 12.8717 43.8721 12.5202 43.9697 12.2012C44.0674 11.8789 44.196 11.6006 44.3555 11.3662C44.5182 11.1286 44.7168 10.9447 44.9512 10.8145C45.1888 10.6842 45.4671 10.6191 45.7861 10.6191C46.1214 10.6191 46.416 10.6826 46.6699 10.8096C46.9271 10.9365 47.1419 11.1188 47.3145 11.3564C47.4902 11.5941 47.6221 11.8773 47.71 12.2061C47.8011 12.5348 47.8467 12.8994 47.8467 13.2998ZM46.4355 13.4023V13.2998C46.4355 13.0752 46.416 12.8685 46.377 12.6797C46.3411 12.4876 46.2826 12.32 46.2012 12.1768C46.123 12.0335 46.0189 11.9229 45.8887 11.8447C45.7617 11.7633 45.6071 11.7227 45.4248 11.7227C45.2327 11.7227 45.0684 11.7536 44.9316 11.8154C44.7982 11.8773 44.6891 11.9668 44.6045 12.084C44.5199 12.2012 44.4564 12.3411 44.4141 12.5039C44.3717 12.6667 44.3457 12.8506 44.3359 13.0557V13.7344C44.3522 13.9753 44.3978 14.1917 44.4727 14.3838C44.5475 14.5726 44.6631 14.7223 44.8193 14.833C44.9756 14.9437 45.1807 14.999 45.4346 14.999C45.6201 14.999 45.7764 14.9583 45.9033 14.877C46.0303 14.7923 46.1328 14.6768 46.2109 14.5303C46.2923 14.3838 46.3493 14.2145 46.3818 14.0225C46.4176 13.8304 46.4355 13.6237 46.4355 13.4023ZM50.2051 10.7168V16H48.7939V10.7168H50.2051ZM48.7061 9.33984C48.7061 9.13477 48.7777 8.96549 48.9209 8.83203C49.0641 8.69857 49.2562 8.63184 49.4971 8.63184C49.7347 8.63184 49.9251 8.69857 50.0684 8.83203C50.2148 8.96549 50.2881 9.13477 50.2881 9.33984C50.2881 9.54492 50.2148 9.71419 50.0684 9.84766C49.9251 9.98112 49.7347 10.0479 49.4971 10.0479C49.2562 10.0479 49.0641 9.98112 48.9209 9.84766C48.7777 9.71419 48.7061 9.54492 48.7061 9.33984ZM52.8516 8.5V16H51.4404V8.5H52.8516ZM53.7891 13.4121V13.3096C53.7891 12.9222 53.8444 12.5658 53.9551 12.2402C54.0658 11.9115 54.2269 11.6266 54.4385 11.3857C54.6501 11.1449 54.9105 10.9577 55.2197 10.8242C55.529 10.6875 55.8838 10.6191 56.2842 10.6191C56.6846 10.6191 57.041 10.6875 57.3535 10.8242C57.666 10.9577 57.9281 11.1449 58.1396 11.3857C58.3545 11.6266 58.5173 11.9115 58.6279 12.2402C58.7386 12.5658 58.7939 12.9222 58.7939 13.3096V13.4121C58.7939 13.7962 58.7386 14.1527 58.6279 14.4814C58.5173 14.807 58.3545 15.0918 58.1396 15.3359C57.9281 15.5768 57.6676 15.764 57.3584 15.8975C57.0492 16.0309 56.6943 16.0977 56.2939 16.0977C55.8936 16.0977 55.5371 16.0309 55.2246 15.8975C54.9154 15.764 54.6533 15.5768 54.4385 15.3359C54.2269 15.0918 54.0658 14.807 53.9551 14.4814C53.8444 14.1527 53.7891 13.7962 53.7891 13.4121ZM55.1953 13.3096V13.4121C55.1953 13.6335 55.2148 13.8402 55.2539 14.0322C55.293 14.2243 55.3548 14.3936 55.4395 14.54C55.5273 14.6833 55.6413 14.7956 55.7812 14.877C55.9212 14.9583 56.0921 14.999 56.2939 14.999C56.4893 14.999 56.6569 14.9583 56.7969 14.877C56.9368 14.7956 57.0492 14.6833 57.1338 14.54C57.2184 14.3936 57.2803 14.2243 57.3193 14.0322C57.3617 13.8402 57.3828 13.6335 57.3828 13.4121V13.3096C57.3828 13.0947 57.3617 12.8929 57.3193 12.7041C57.2803 12.512 57.2168 12.3428 57.1289 12.1963C57.0443 12.0465 56.932 11.9294 56.792 11.8447C56.652 11.7601 56.4827 11.7178 56.2842 11.7178C56.0856 11.7178 55.9163 11.7601 55.7764 11.8447C55.6396 11.9294 55.5273 12.0465 55.4395 12.1963C55.3548 12.3428 55.293 12.512 55.2539 12.7041C55.2148 12.8929 55.1953 13.0947 55.1953 13.3096ZM62.2461 10.7168V11.7129H59.1699V10.7168H62.2461ZM59.9316 9.41309H61.3379V14.4082C61.3379 14.5612 61.3574 14.6784 61.3965 14.7598C61.4388 14.8411 61.5007 14.8981 61.582 14.9307C61.6634 14.96 61.766 14.9746 61.8896 14.9746C61.9775 14.9746 62.0557 14.9714 62.124 14.9648C62.1956 14.9551 62.2559 14.9453 62.3047 14.9355L62.3096 15.9707C62.1891 16.0098 62.0589 16.0407 61.9189 16.0635C61.779 16.0863 61.6243 16.0977 61.4551 16.0977C61.1458 16.0977 60.8757 16.0472 60.6445 15.9463C60.4167 15.8421 60.2409 15.6761 60.1172 15.4482C59.9935 15.2204 59.9316 14.9209 59.9316 14.5498V9.41309Z" fill="white"/>
</svg>
