<svg width="86" height="45" viewBox="0 0 86 45" fill="none" xmlns="http://www.w3.org/2000/svg">
<rect width="86" height="45" rx="6" fill="#1C9CEA"/>
<path d="M51.2935 18.3747C51.4049 18.2448 51.2597 18.0751 51.0948 18.1359C50.727 18.2716 50.3908 18.3611 49.8937 18.4163C50.5052 18.0758 50.7896 17.5892 51.0209 16.9931C51.0767 16.8493 50.9084 16.7188 50.7635 16.7875C50.1749 17.0666 49.5398 17.2736 48.872 17.396C48.2119 16.7418 47.271 16.333 46.2302 16.333C44.2315 16.333 42.6108 17.8403 42.6108 19.699C42.6108 19.9628 42.6431 20.2199 42.7041 20.466C39.8311 20.3321 37.2692 19.1031 35.4893 17.2185C35.3673 17.0893 35.146 17.1065 35.07 17.264C34.8674 17.6843 34.7544 18.1506 34.7544 18.6415C34.7544 19.809 35.3932 20.8392 36.3642 21.4428C35.9288 21.4298 35.5125 21.3449 35.1288 21.201C34.9419 21.1309 34.7278 21.254 34.7529 21.4424C34.9456 22.889 36.1168 24.0824 37.6285 24.3644C37.3249 24.4417 37.0052 24.4827 36.6744 24.4827C36.5942 24.4827 36.5147 24.4802 36.4359 24.4753C36.2354 24.4629 36.0725 24.6423 36.1584 24.8138C36.7255 25.9457 37.95 26.7358 39.375 26.7604C38.1364 27.6634 36.5759 28.2014 34.8801 28.2014C34.671 28.2014 34.5813 28.4703 34.7668 28.5614C36.1995 29.2657 37.8311 29.6663 39.5647 29.6663C46.2221 29.6663 49.8621 24.5374 49.8621 20.0893C49.8621 19.9437 49.8584 19.7981 49.8518 19.6539C50.3922 19.2908 50.8779 18.8592 51.2935 18.3747Z" fill="white"/>
</svg>
