<svg width="15" height="15" viewBox="0 0 15 15" fill="none" xmlns="http://www.w3.org/2000/svg">
<g clip-path="url(#clip0_418_6542)">
<path d="M14.0625 10.3125C13.7812 10.3125 13.5234 10.5469 13.5234 10.8516V12.9375C13.5234 13.1484 13.3594 13.3125 13.1484 13.3125H1.85156C1.64062 13.3125 1.47656 13.1484 1.47656 12.9375V10.8516C1.47656 10.5469 1.21875 10.3125 0.9375 10.3125C0.65625 10.3125 0.398438 10.5469 0.398438 10.8516V12.9375C0.398438 13.7344 1.03125 14.3672 1.82813 14.3672H13.1484C13.9453 14.3672 14.5781 13.7344 14.5781 12.9375V10.8516C14.6016 10.5469 14.3438 10.3125 14.0625 10.3125Z" fill="white"/>
<path d="M4.47656 4.85156L6.98438 2.41406V10.5234C6.98438 10.8047 7.21875 11.0625 7.52344 11.0625C7.80469 11.0625 8.0625 10.8281 8.0625 10.5234V2.41406L10.5703 4.85156C10.6641 4.94531 10.8047 4.99219 10.9453 4.99219C11.0859 4.99219 11.2266 4.94531 11.3203 4.82813C11.5312 4.61719 11.5078 4.28906 11.3203 4.07812L7.875 0.796875C7.66406 0.609375 7.33594 0.609375 7.14844 0.796875L3.72656 4.10156C3.51562 4.3125 3.51562 4.64063 3.72656 4.85156C3.9375 5.03906 4.26563 5.0625 4.47656 4.85156Z" fill="white"/>
</g>
<defs>
<clipPath id="clip0_418_6542">
<rect width="15" height="15" fill="white"/>
</clipPath>
</defs>
</svg>
