<svg width="8" height="8" viewBox="0 0 8 8" fill="none" xmlns="http://www.w3.org/2000/svg">
<path d="M4.64648 6.7C4.50898 6.7125 4.37148 6.7125 4.23398 6.7125C3.25898 6.7125 2.32148 6.35 1.89648 6.15C1.94648 5.4 2.18398 4.7375 2.59648 4.2375C3.03398 3.725 3.60898 3.45 4.23398 3.45C4.70898 3.45 5.15898 3.6125 5.54648 3.9125C5.67148 4.0125 5.84648 3.9875 5.94648 3.875C6.04648 3.75 6.02148 3.575 5.90898 3.475C5.63398 3.2625 5.34648 3.1 5.02148 3C5.50898 2.725 5.84648 2.2 5.84648 1.6C5.84648 0.725 5.13398 0 4.24648 0C3.37148 0 2.64648 0.7125 2.64648 1.6C2.64648 2.2 2.97148 2.725 3.45898 2.9875C2.97148 3.1375 2.52148 3.4375 2.17148 3.8625C1.64648 4.4875 1.34648 5.35 1.33398 6.3C1.33398 6.4125 1.39648 6.5125 1.48398 6.5625C1.80898 6.725 2.98398 7.2625 4.23398 7.2625C4.38398 7.2625 4.53398 7.25 4.68398 7.2375C4.83398 7.225 4.95898 7.0875 4.93398 6.9375C4.93398 6.8 4.79648 6.6875 4.64648 6.7ZM4.23398 0.5875C4.80898 0.5875 5.27148 1.05 5.27148 1.625C5.27148 2.2 4.80898 2.6625 4.23398 2.6625C3.65898 2.6625 3.19648 2.2 3.19648 1.625C3.19648 1.05 3.67148 0.5875 4.23398 0.5875Z" fill="#F9BF28"/>
<path d="M7.68449 7.13703L7.22199 6.49953C7.40949 6.29953 7.53449 6.03703 7.58449 5.76203C7.64699 5.38703 7.55949 5.01203 7.33449 4.71203C7.10949 4.39953 6.78449 4.19953 6.40949 4.14953C6.03449 4.08703 5.65949 4.17453 5.35949 4.39953C5.04699 4.62453 4.84699 4.94953 4.79699 5.32453C4.73449 5.69953 4.82199 6.07453 5.04699 6.37453C5.27199 6.68703 5.59699 6.88703 5.97199 6.93703C6.04699 6.94953 6.12199 6.94953 6.19699 6.94953C6.39699 6.94953 6.59699 6.89953 6.78449 6.82453L7.24699 7.46203C7.29699 7.53703 7.38449 7.57453 7.47199 7.57453C7.53449 7.57453 7.58449 7.56203 7.63449 7.52453C7.74699 7.43703 7.77199 7.26203 7.68449 7.13703ZM6.04699 6.37453C5.82199 6.33703 5.62199 6.21203 5.48449 6.03703C5.34699 5.84953 5.29699 5.62453 5.33449 5.39953C5.37199 5.17453 5.49699 4.97453 5.67199 4.83703C5.82199 4.72453 5.99699 4.67453 6.17199 4.67453C6.22199 4.67453 6.25949 4.67453 6.30949 4.68703C6.53449 4.72453 6.73449 4.84953 6.87199 5.02453C7.00949 5.21203 7.05949 5.43703 7.02199 5.66203C6.98449 5.88703 6.85949 6.08703 6.68449 6.22453C6.49699 6.36203 6.27199 6.41203 6.04699 6.37453Z" fill="#F9BF28"/>
</svg>
