<svg width="17" height="17" viewBox="0 0 17 17" fill="none" xmlns="http://www.w3.org/2000/svg">
<path d="M9.87305 14.2375C9.58086 14.2641 9.28867 14.2641 8.99648 14.2641C6.92461 14.2641 4.93242 13.4938 4.0293 13.0688C4.13555 11.475 4.64023 10.0672 5.5168 9.00469C6.44648 7.91563 7.66836 7.33125 8.99648 7.33125C10.0059 7.33125 10.9621 7.67656 11.7855 8.31406C12.0512 8.52656 12.423 8.47344 12.6355 8.23437C12.848 7.96875 12.7949 7.59687 12.5559 7.38437C11.9715 6.93281 11.3605 6.5875 10.6699 6.375C11.7059 5.79063 12.423 4.675 12.423 3.4C12.423 1.54062 10.909 0 9.02305 0C7.16367 0 5.62305 1.51406 5.62305 3.4C5.62305 4.675 6.31367 5.79063 7.34961 6.34844C6.31367 6.66719 5.35742 7.30469 4.61367 8.20781C3.49805 9.53594 2.86055 11.3688 2.83398 13.3875C2.83398 13.6266 2.9668 13.8391 3.15273 13.9453C3.84336 14.2906 6.34023 15.4328 8.99648 15.4328C9.31523 15.4328 9.63398 15.4062 9.95273 15.3797C10.2715 15.3531 10.5371 15.0609 10.484 14.7422C10.484 14.45 10.1918 14.2109 9.87305 14.2375ZM8.99648 1.24844C10.2184 1.24844 11.2012 2.23125 11.2012 3.45312C11.2012 4.675 10.2184 5.65781 8.99648 5.65781C7.77461 5.65781 6.7918 4.675 6.7918 3.45312C6.7918 2.23125 7.80117 1.24844 8.99648 1.24844Z" fill="white"/>
<path d="M16.3281 15.1675L15.3453 13.8128C15.7437 13.3878 16.0093 12.83 16.1156 12.2457C16.2484 11.4488 16.0625 10.6519 15.5843 10.0144C15.1062 9.35034 14.4156 8.92534 13.6187 8.81909C12.8218 8.68628 12.025 8.87222 11.3875 9.35034C10.7234 9.82847 10.2984 10.5191 10.1921 11.316C10.0593 12.1128 10.2453 12.9097 10.7234 13.5472C11.2015 14.2113 11.8921 14.6363 12.689 14.7425C12.8484 14.7691 13.0078 14.7691 13.1671 14.7691C13.5921 14.7691 14.0171 14.6628 14.4156 14.5035L15.3984 15.8582C15.5046 16.0175 15.6906 16.0972 15.8765 16.0972C16.0093 16.0972 16.1156 16.0707 16.2218 15.991C16.4609 15.805 16.514 15.4332 16.3281 15.1675ZM12.8484 13.5472C12.3703 13.4675 11.9453 13.2019 11.6531 12.83C11.3609 12.4316 11.2546 11.9535 11.3343 11.4753C11.414 10.9972 11.6796 10.5722 12.0515 10.28C12.3703 10.041 12.7421 9.93472 13.114 9.93472C13.2203 9.93472 13.3 9.93472 13.4062 9.96128C13.8843 10.041 14.3093 10.3066 14.6015 10.6785C14.8937 11.0769 15 11.555 14.9203 12.0332C14.8406 12.5113 14.575 12.9363 14.2031 13.2285C13.8046 13.5207 13.3265 13.6269 12.8484 13.5472Z" fill="white"/>
</svg>
