<svg width="124" height="103" viewBox="0 0 124 103" fill="none" xmlns="http://www.w3.org/2000/svg">
<rect y="28.7109" width="109.711" height="67" rx="5" transform="rotate(-15.1707 0 28.7109)" fill="#5738AF"/>
<path d="M41.879 29.1434L51.6292 26.1475L57.8127 74.4623L43.0155 79.009L32.7061 45.4572L38.4846 80.4013L23.6874 84.948L9.58899 39.0651L18.192 36.4217L29.3474 72.7265L22.5509 35.0824L37.5202 30.4828L48.6755 66.7876L41.879 29.1434ZM73.8018 19.3345L76.4453 27.9376L70.5379 29.7527L81.9928 67.0325L73.3898 69.676L61.9348 32.3962L56.0274 34.2113L53.384 25.6083L73.8018 19.3345ZM94.5485 22.375L86.8058 24.7541L90.5947 37.0851L98.3375 34.706L100.981 43.309L93.2382 45.6881L98.2607 62.0339L89.6577 64.6773L75.5593 18.7945L91.9051 13.7719L94.5485 22.375ZM93.9328 13.1489L102.536 10.5055L111.655 42.2261L104.199 44.5171L93.9328 13.1489ZM112.509 58.2836C109.985 59.059 107.374 57.9154 106.528 55.1625C105.647 52.2948 107.166 49.8824 109.689 49.107C112.213 48.3316 114.824 49.4751 115.705 52.3428C116.551 55.0958 115.032 57.5081 112.509 58.2836Z" fill="#D0D5FF"/>
</svg>
